<svg width="128" height="87" viewBox="0 0 128 87" fill="none" xmlns="http://www.w3.org/2000/svg">
<path d="M68.4879 86.5382C63.9855 86.5382 60.3217 82.8743 60.3217 78.372C60.3217 73.8685 63.9855 70.2046 68.4879 70.2046C72.9914 70.2046 76.6553 73.8685 76.6553 78.372C76.6553 82.8743 72.9914 86.5382 68.4879 86.5382ZM68.4879 74.3088C66.2485 74.3088 64.4259 76.1326 64.4259 78.372C64.4259 80.6114 66.2485 82.434 68.4879 82.434C70.7273 82.434 72.551 80.6114 72.551 78.372C72.551 76.1326 70.7273 74.3088 68.4879 74.3088Z" fill="#2C4A93"/>
<path d="M115.451 18.4709C114.318 18.4709 113.399 17.5514 113.399 16.4182V10.2613C113.399 9.12804 114.318 8.20972 115.451 8.20972C116.585 8.20972 117.503 9.12804 117.503 10.2613V16.4182C117.503 17.5514 116.585 18.4709 115.451 18.4709Z" fill="#2C4A93"/>
<path d="M115.451 32.8364C114.318 32.8364 113.399 31.9181 113.399 30.7849V24.6279C113.399 23.4947 114.318 22.5752 115.451 22.5752C116.585 22.5752 117.503 23.4947 117.503 24.6279V30.7849C117.503 31.9181 116.585 32.8364 115.451 32.8364Z" fill="#2C4A93"/>
<path d="M111.347 22.5752H105.19C104.057 22.5752 103.138 21.6569 103.138 20.5237C103.138 19.3893 104.057 18.4709 105.19 18.4709H111.347C112.48 18.4709 113.399 19.3893 113.399 20.5237C113.399 21.6569 112.48 22.5752 111.347 22.5752Z" fill="#2C4A93"/>
<path d="M125.712 22.5752H119.556C118.422 22.5752 117.503 21.6569 117.503 20.5237C117.503 19.3893 118.422 18.4709 119.556 18.4709H125.712C126.846 18.4709 127.765 19.3893 127.765 20.5237C127.765 21.6569 126.846 22.5752 125.712 22.5752Z" fill="#2C4A93"/>
<path d="M6.32506 62.9483C5.29753 62.9483 4.27939 62.6958 3.34698 62.1967C1.85677 61.3994 0.764648 60.0689 0.274956 58.4506C-0.214737 56.8324 -0.0468085 55.1203 0.75173 53.6289C1.54909 52.1387 2.8796 51.0465 4.49782 50.5568C7.83406 49.5422 11.3782 51.4376 12.3916 54.7785C13.4039 58.1195 11.5097 61.6601 8.16992 62.6735C7.5628 62.8579 6.94158 62.9483 6.32506 62.9483ZM6.33211 54.3887C6.11838 54.3887 5.9023 54.4204 5.6874 54.485C5.11903 54.6576 4.65165 55.0416 4.37099 55.5653C4.09033 56.0891 4.03161 56.6915 4.20424 57.261C4.37569 57.8306 4.75969 58.2968 5.28344 58.5775C5.80718 58.857 6.41196 58.918 6.97916 58.7442C8.15348 58.3896 8.81932 57.1436 8.4635 55.9693C8.17109 55.0087 7.28683 54.3887 6.33211 54.3887Z" fill="#2C4A93"/>
<path d="M10.3885 12.6604C6.89841 12.6604 4.0589 9.82085 4.0589 6.33077C4.0589 2.84068 6.89841 0 10.3885 0C13.8786 0 16.7193 2.84068 16.7193 6.33077C16.7193 9.82085 13.8786 12.6604 10.3885 12.6604ZM10.3885 4.10543C9.16133 4.10543 8.16315 5.10243 8.16315 6.33077C8.16315 7.55793 9.16133 8.55611 10.3885 8.55611C11.6168 8.55611 12.6138 7.55793 12.6138 6.33077C12.6138 5.10243 11.6157 4.10543 10.3885 4.10543Z" fill="#2C4A93"/>
<path d="M29.7834 34.3373C29.2585 34.3373 28.7324 34.1365 28.3319 33.7361C27.531 32.934 27.531 31.6352 28.3319 30.8343L34.382 24.783C35.1841 23.9822 36.4829 23.9822 37.285 24.783C38.0858 25.5851 38.0858 26.8839 37.285 27.6848L31.2337 33.7361C30.8321 34.1365 30.3083 34.3373 29.7834 34.3373Z" fill="#2C4A93"/>
<path d="M35.8335 34.3373C35.3085 34.3373 34.7836 34.1365 34.382 33.7361L28.3319 27.6848C27.5298 26.8839 27.5298 25.5851 28.3319 24.783C29.1328 23.9822 30.4316 23.9822 31.2336 24.783L37.2837 30.8343C38.0858 31.6352 38.0858 32.934 37.2837 33.7361C36.8833 34.1365 36.3584 34.3373 35.8335 34.3373Z" fill="#2C4A93"/>
<path d="M67.3498 9.94541C67.3498 11.8361 65.8173 13.3686 63.9267 13.3686C62.0372 13.3686 60.5047 11.8361 60.5047 9.94541C60.5047 8.05593 62.0372 6.52344 63.9267 6.52344C65.8173 6.52344 67.3498 8.05593 67.3498 9.94541Z" fill="#2C4A93"/>
<path d="M124.813 53.0428C124.813 54.9335 123.282 56.466 121.391 56.466C119.5 56.466 117.968 54.9335 117.968 53.0428C117.968 51.1533 119.5 49.6208 121.391 49.6208C123.282 49.6208 124.813 51.1533 124.813 53.0428Z" fill="#2C4A93"/>
</svg>
